<svg width="30" height="28" viewBox="0 0 30 28" fill="none" xmlns="http://www.w3.org/2000/svg">
<path d="M10.9375 15.75C12.8577 15.75 14.4669 16.9935 14.8907 18.6647L26.5625 18.6667C27.0802 18.6667 27.5 19.0585 27.5 19.5417C27.5 19.9847 27.1473 20.3508 26.6898 20.4088L26.5625 20.4167L14.8911 20.4175C14.4676 22.0893 12.8582 23.3334 10.9375 23.3334C9.01681 23.3334 7.40742 22.0893 6.9839 20.4175L3.4375 20.4167C2.91974 20.4167 2.5 20.0249 2.5 19.5417C2.5 19.0987 2.85269 18.7326 3.31029 18.6746L3.4375 18.6667L6.9839 18.6659C7.40742 16.994 9.01681 15.75 10.9375 15.75ZM10.9375 17.5C9.98233 17.5 9.17014 18.0715 8.87191 18.8679L8.8462 18.9411L8.79809 19.114C8.76657 19.2519 8.75 19.3949 8.75 19.5417C8.75 19.7223 8.77514 19.8975 8.82231 20.0642L8.87208 20.2159L8.90419 20.2961C9.22569 21.0503 10.0149 21.5834 10.9375 21.5834C11.8922 21.5834 12.704 21.0125 13.0026 20.2166L13.0527 20.0641L13.0314 20.1345C13.0923 19.9469 13.125 19.7478 13.125 19.5417C13.125 19.4194 13.1135 19.2996 13.0914 19.1833L13.0539 19.0233L13.0289 18.9412L12.9704 18.7862C12.6485 18.0326 11.8596 17.5 10.9375 17.5ZM19.0625 4.66669C20.9832 4.66669 22.5926 5.91073 23.0161 7.58258L26.5625 7.58335C27.0802 7.58335 27.5 7.97511 27.5 8.45835C27.5 8.90134 27.1473 9.26743 26.6898 9.32536L26.5625 9.33335L23.0161 9.33412C22.5926 11.006 20.9832 12.25 19.0625 12.25C17.1418 12.25 15.5324 11.006 15.1089 9.33412L3.4375 9.33335C2.91974 9.33335 2.5 8.9416 2.5 8.45835C2.5 8.01537 2.85269 7.64928 3.31029 7.59135L3.4375 7.58335L15.1093 7.58141C15.5331 5.91014 17.1423 4.66669 19.0625 4.66669ZM19.0625 6.41669C18.1074 6.41669 17.2951 6.98807 16.9969 7.7846L16.9712 7.8577L16.9231 8.03062C16.8916 8.16855 16.875 8.31165 16.875 8.45835C16.875 8.63899 16.9001 8.81415 16.9474 8.98095L16.9971 9.13253L17.0292 9.21277C17.3506 9.96694 18.1399 10.5 19.0625 10.5C20.0173 10.5 20.829 9.9292 21.1276 9.13329L21.1777 8.9808L21.1564 9.05111C21.2173 8.86353 21.25 8.6645 21.25 8.45835C21.25 8.33606 21.2385 8.21627 21.2164 8.0999L21.1789 7.93995L21.1539 7.85786L21.0954 7.70277C20.7735 6.94923 19.9846 6.41669 19.0625 6.41669Z" fill="black"/>
</svg>
