<svg width="32" height="19" viewBox="0 0 32 19" fill="none" xmlns="http://www.w3.org/2000/svg">
<path d="M30.7957 0C30.1881 0 29.6861 0.356611 29.6067 0.819118L29.5957 0.947704L29.5995 17.3766C29.5997 17.8999 30.1371 18.324 30.7999 18.324C31.4075 18.324 31.9097 17.9674 31.9891 17.5049L31.9999 17.3763L31.9961 0.94735C31.9961 0.42405 31.4586 0 30.7957 0ZM10.1609 2.27878L10.0447 2.1725C9.61857 1.83616 8.95179 1.80562 8.48196 2.0809L8.34737 2.17264L0.351453 8.48655C-0.074378 8.82274 -0.113264 9.3488 0.23489 9.71973L0.350957 9.82598L8.34687 16.1472C8.81525 16.5175 9.57519 16.5179 10.0442 16.1481C10.4706 15.8119 10.5098 15.2856 10.1615 14.9145L10.0454 14.8081L4.10726 10.112L25.9941 10.1131C26.6018 10.1131 27.1039 9.75675 27.1835 9.29423L27.1943 9.16562C27.1943 8.68604 26.7429 8.2896 26.157 8.22681L25.9941 8.21809L4.08646 8.21695L10.0449 3.51252C10.4709 3.17608 10.5096 2.64969 10.1609 2.27878Z" fill="#212121"/>
</svg>
