<svg width="27" height="24" viewBox="0 0 27 24" fill="none" xmlns="http://www.w3.org/2000/svg">
<path d="M25.385 1.07764L25.5907 1.24981L25.7848 1.43222C27.4674 3.10789 27.4027 5.67753 25.5907 7.28442L9.49719 21.5562C9.12489 21.8863 8.66187 22.1246 8.1539 22.2474L1.27498 23.9112C0.52212 24.0932 -0.168679 23.4806 0.0366527 22.813L1.91271 16.7128C2.05125 16.2623 2.31996 15.8517 2.69226 15.5215L18.7857 1.24981C20.5978 -0.357086 23.4955 -0.414479 25.385 1.07764ZM17.4821 4.93558L4.1185 16.7864C3.9944 16.8964 3.90483 17.0332 3.85866 17.1834L2.44695 21.7737L7.62319 20.5217C7.79251 20.4808 7.94685 20.4014 8.07095 20.2913L21.4341 8.44021L17.4821 4.93558ZM6.08576 10.8251L4.06875 12.6138L1.00962 12.6143C0.452627 12.6143 0.0011128 12.2139 0.0011128 11.72C0.0011128 11.2261 0.452627 10.8256 1.00962 10.8256L6.08576 10.8251ZM11.4644 6.0553L9.44744 7.84398L1.00962 7.84448C0.452627 7.84448 0.0011128 7.44408 0.0011128 6.95014C0.0011128 6.45621 0.452627 6.0558 1.00962 6.0558L11.4644 6.0553ZM20.212 2.5146L18.9074 3.67037L22.8594 7.17621L24.1644 6.01963C25.2559 5.05175 25.2559 3.48249 24.1644 2.5146C23.073 1.54672 21.3034 1.54672 20.212 2.5146ZM16.8431 1.28547L14.8261 3.07415L1.00962 3.07466C0.452627 3.07466 0.0011128 2.67426 0.0011128 2.18032C0.0011128 1.68639 0.452627 1.28598 1.00962 1.28598L16.8431 1.28547Z" fill="#212121"/>
</svg>
