<svg width="32" height="19" viewBox="0 0 32 19" fill="none" xmlns="http://www.w3.org/2000/svg">
<path d="M30.7958 0C30.1882 0 29.6862 0.356612 29.6068 0.819119L29.5958 0.947706L29.5996 17.3767C29.5998 17.9 30.1371 18.3241 30.8 18.3241C31.4076 18.3241 31.9097 17.9674 31.9891 17.5049L32 17.3763L31.9962 0.947351C31.9962 0.42405 31.4586 0 30.7958 0ZM10.161 2.27878L10.0447 2.17251C9.61859 1.83616 8.9518 1.80562 8.48198 2.0809L8.34738 2.17265L0.351454 8.48657C-0.0743781 8.82275 -0.113265 9.34882 0.23489 9.71975L0.350958 9.826L8.34689 16.1473C8.81527 16.5176 9.57521 16.518 10.0442 16.1482C10.4706 15.812 10.5098 15.2857 10.1615 14.9145L10.0454 14.8081L4.10727 10.112L25.9942 10.1132C26.6018 10.1132 27.104 9.75676 27.1835 9.29425L27.1944 9.16563C27.1944 8.68606 26.743 8.28961 26.1571 8.22682L25.9942 8.2181L4.08647 8.21697L10.0449 3.51253C10.471 3.17609 10.5096 2.64969 10.161 2.27878Z" fill="black"/>
</svg>
