<svg width="38" height="30" viewBox="0 0 38 30" fill="none" xmlns="http://www.w3.org/2000/svg">
<path d="M33.6357 5.625C33.0345 5.625 32.5378 5.97784 32.4593 6.43545L32.4483 6.56268L32.4521 22.8178C32.4523 23.3355 32.984 23.7551 33.6398 23.7551C34.241 23.7551 34.7378 23.4023 34.8164 22.9446L34.8271 22.8174L34.8233 6.56232C34.8233 6.04456 34.2915 5.625 33.6357 5.625ZM13.2192 7.87966L13.1042 7.77451C12.6826 7.44173 12.0229 7.41151 11.558 7.68388L11.4249 7.77465L3.51357 14.0218C3.09224 14.3544 3.05377 14.8749 3.39824 15.2419L3.51308 15.347L11.4244 21.6014C11.8878 21.9678 12.6397 21.9681 13.1038 21.6023C13.5256 21.2696 13.5644 20.7489 13.2198 20.3816L13.1049 20.2764L7.22963 15.63L28.8849 15.6311C29.4861 15.6311 29.9829 15.2785 30.0616 14.8209L30.0724 14.6936C30.0724 14.2191 29.6257 13.8269 29.0461 13.7648L28.8849 13.7561L7.20905 13.755L13.1044 9.10035C13.526 8.76748 13.5642 8.24665 13.2192 7.87966Z" fill="black"/>
</svg>
