<svg width="36" height="25" viewBox="0 0 36 25" fill="none" xmlns="http://www.w3.org/2000/svg">
<path d="M4.5 24.5C2.2221 24.5 0.5 22.9109 0.5 21.0938V3.90625C0.5 2.08912 2.22209 0.5 4.5 0.5H6.3C8.5779 0.5 10.3 2.08912 10.3 3.90625V21.0938C10.3 22.9109 8.5779 24.5 6.3 24.5H4.5ZM17.1 24.5C14.8221 24.5 13.1 22.9109 13.1 21.0938V3.90625C13.1 2.08912 14.8221 0.5 17.1 0.5H18.9C21.1779 0.5 22.9 2.08912 22.9 3.90625V21.0938C22.9 22.9109 21.1779 24.5 18.9 24.5H17.1ZM29.7 24.5C27.4221 24.5 25.7 22.9109 25.7 21.0938V3.90625C25.7 2.08912 27.4221 0.5 29.7 0.5H31.5C33.7779 0.5 35.5 2.08912 35.5 3.90625V21.0938C35.5 22.9109 33.7779 24.5 31.5 24.5H29.7Z" fill="#212121" stroke="black"/>
</svg>
