<svg width="30" height="27" viewBox="0 0 30 27" fill="none" xmlns="http://www.w3.org/2000/svg">
<path d="M10.9375 15.1875C12.8577 15.1875 14.4669 16.3865 14.8907 17.9981L26.5625 18C27.0802 18 27.5 18.3778 27.5 18.8438C27.5 19.2709 27.1473 19.6239 26.6898 19.6799L26.5625 19.6875L14.8911 19.6883C14.4676 21.3004 12.8582 22.5 10.9375 22.5C9.01681 22.5 7.40742 21.3004 6.9839 19.6883L3.4375 19.6875C2.91974 19.6875 2.5 19.3097 2.5 18.8438C2.5 18.4166 2.85269 18.0636 3.31029 18.0076L3.4375 18L6.9839 17.9992C7.40742 16.3871 9.01681 15.1875 10.9375 15.1875ZM10.9375 16.875C9.98233 16.875 9.17014 17.426 8.87191 18.1941L8.8462 18.2646L8.79809 18.4313C8.76657 18.5643 8.75 18.7022 8.75 18.8438C8.75 19.0179 8.77514 19.1869 8.82231 19.3476L8.87208 19.4939L8.90419 19.5712C9.22569 20.2985 10.0149 20.8125 10.9375 20.8125C11.8922 20.8125 12.704 20.262 13.0026 19.4946L13.0527 19.3475L13.0314 19.4154C13.0923 19.2345 13.125 19.0425 13.125 18.8438C13.125 18.7259 13.1135 18.6103 13.0914 18.4982L13.0539 18.3439L13.0289 18.2647L12.9704 18.1152C12.6485 17.3886 11.8596 16.875 10.9375 16.875ZM19.0625 4.5C20.9832 4.5 22.5926 5.69961 23.0161 7.31176L26.5625 7.3125C27.0802 7.3125 27.5 7.69026 27.5 8.15625C27.5 8.58341 27.1473 8.93643 26.6898 8.99229L26.5625 9L23.0161 9.00074C22.5926 10.6129 20.9832 11.8125 19.0625 11.8125C17.1418 11.8125 15.5324 10.6129 15.1089 9.00074L3.4375 9C2.91974 9 2.5 8.62224 2.5 8.15625C2.5 7.72909 2.85269 7.37607 3.31029 7.32021L3.4375 7.3125L15.1093 7.31062C15.5331 5.69905 17.1423 4.5 19.0625 4.5ZM19.0625 6.1875C18.1074 6.1875 17.2951 6.73848 16.9969 7.50656L16.9712 7.57704L16.9231 7.74379C16.8916 7.8768 16.875 8.01478 16.875 8.15625C16.875 8.33043 16.9001 8.49934 16.9474 8.66018L16.9971 8.80635L17.0292 8.88372C17.3506 9.61095 18.1399 10.125 19.0625 10.125C20.0173 10.125 20.829 9.57457 21.1276 8.80709L21.1777 8.66004L21.1564 8.72784C21.2173 8.54695 21.25 8.35504 21.25 8.15625C21.25 8.03833 21.2385 7.92281 21.2164 7.81059L21.1789 7.65636L21.1539 7.5772L21.0954 7.42765C20.7735 6.70103 19.9846 6.1875 19.0625 6.1875Z" fill="#212121"/>
</svg>
