<svg width="32" height="25" viewBox="0 0 32 25" fill="none" xmlns="http://www.w3.org/2000/svg">
<path d="M16 2.11432C8.48893 2.11432 2.4 7.47846 2.4 14.0955C2.4 17.4004 3.91746 20.3912 6.37491 22.5599C6.84314 22.9732 6.84248 23.6426 6.37344 24.055C5.9044 24.4674 5.14461 24.4669 4.67638 24.0537C1.78808 21.5047 0 17.9831 0 14.0955C0 6.31075 7.16344 0 16 0C24.8365 0 32 6.31075 32 14.0955C32 17.9831 30.2118 21.5047 27.3237 24.0537C26.8554 24.4669 26.0955 24.4674 25.6266 24.055C25.1576 23.6426 25.1568 22.9732 25.6251 22.5599C28.0826 20.3912 29.6 17.4004 29.6 14.0955C29.6 7.47846 23.511 2.11432 16 2.11432ZM16 7.04773C11.5817 7.04773 8 10.2031 8 14.0955C8 16.0432 8.89523 17.8047 10.3459 19.0813C10.8147 19.494 10.8151 20.1634 10.3467 20.5764C9.87827 20.9894 9.11848 20.9898 8.64962 20.5771C6.76683 18.92 5.6 16.6267 5.6 14.0955C5.6 9.0354 10.2562 4.93341 16 4.93341C21.7438 4.93341 26.4 9.0354 26.4 14.0955C26.4 16.6267 25.2331 18.92 23.3504 20.5771C22.8816 20.9898 22.1218 20.9894 21.6533 20.5764C21.185 20.1634 21.1853 19.494 21.6541 19.0813C23.1048 17.8047 24 16.0432 24 14.0955C24 10.2031 20.4182 7.04773 16 7.04773ZM16 10.5716C13.7909 10.5716 12 12.1493 12 14.0955C12 16.0416 13.7909 17.6193 16 17.6193C18.2091 17.6193 20 16.0416 20 14.0955C20 12.1493 18.2091 10.5716 16 10.5716ZM14.4 14.0955C14.4 13.317 15.1163 12.6859 16 12.6859C16.8837 12.6859 17.6 13.317 17.6 14.0955C17.6 14.8739 16.8837 15.505 16 15.505C15.1163 15.505 14.4 14.8739 14.4 14.0955Z" fill="#212121"/>
</svg>
